<?xml version="1.0" standalone="no"?><!DOCTYPE svg PUBLIC "-//W3C//DTD SVG 1.1//EN" "http://www.w3.org/Graphics/SVG/1.1/DTD/svg11.dtd">
<svg xmlns="http://www.w3.org/2000/svg" xmlns:xlink="http://www.w3.org/1999/xlink" t="1563952976907" viewBox="0 0 1024 1024" version="1.1">
    <path d="M872 332l-120 0 0-8.4375C752 195.125 648.875 92 520.4375 92l-15 0C377 92 272 195.125 272 323.5625l0 8.4375L152 332 92 932l840 0L872 332zM332 323.5625c0-95.0625 78.375-171.5625 173.4375-171.5625l14.0625 0 0.9375 0c95.0625 0 171.5625 76.5 171.5625 171.5625l0 8.4375L332 332 332 323.5625zM159.125 872l46.6875-480L272 392l0 68.0625c-18 10.3125-30 29.8125-30 51.9375 0 33.1875 26.8125 60 60 60s60-26.8125 60-60c0-22.125-12-41.625-30-51.9375L332 392l360 0 0 68.0625c-18 10.3125-30 29.8125-30 51.9375 0 33.1875 26.8125 60 60 60s60-26.8125 60-60c0-22.125-12-41.625-30-51.9375L752 392l66.375 0 46.6875 480L159.125 872z" p-id="2859" fill="#ffffff"></path>
</svg>