<?xml version="1.0" standalone="no"?><!DOCTYPE svg PUBLIC "-//W3C//DTD SVG 1.1//EN" "http://www.w3.org/Graphics/SVG/1.1/DTD/svg11.dtd">
<svg xmlns="http://www.w3.org/2000/svg" xmlns:xlink="http://www.w3.org/1999/xlink" t="1563952976907" viewBox="0 0 1177 1024" version="1.1">
    <path d="M691.43770156 964.88206625c-3.29920313 0-6.63582094-0.92961-9.60021093-2.87517094-28.3957875-18.63344625-75.12762375-23.68442156-91.01157376-24.07391812l-20.73730031 0-33.08221031 0.2542275c-0.04508906 0-0.08921906 0-0.13430906 0L118.94393187 938.18720469c-9.68079656 0-17.52827625-7.84747969-17.52827624-17.52827625l0-21.06347906c-0.2983575-5.87505656-0.85382156-38.06603156 19.69160906-73.41326625 12.85912125-22.12356 31.34195062-41.11964063 54.93619312-56.46155907 28.58765719-18.58931625 64.79638781-31.78996594 107.6217525-39.23355937 0.21873187-0.03741469 0.43746375-0.07099219 0.65715469-0.10073156 0.32521969-0.04413 33.28079531-4.55499187 66.7582575-13.38100782 58.02625781-15.29778844 63.10121719-28.82173875 63.13671375-28.95412875 0.34152844-1.34117062 0.83847187-2.62861781 1.47452063-3.83931656 0.4758375-2.53076437 1.65391875-12.05518688-0.597675-37.57484437-5.7196425-64.81557469-39.48778687-103.12048406-66.62011126-133.89929625-8.55739781-9.70765781-16.63991813-18.87520219-22.86321843-27.86526751-26.85027563-38.78650313-29.34074719-82.89067969-29.43380344-84.74894062-0.01439063-0.29164219-0.02110594-0.58328437-0.02110594-0.87492656 0-17.60598281 8.77804875-25.70481187 16.52287781-32.85100688l0.40676438-0.376065c0.2542275-0.23504063 0.41443875-0.4096425 0.508455-0.52188656 0.08730094-1.25674781-0.53148-4.446585-0.94975594-6.60128438-0.15925219-0.81928406-0.31850438-1.64144719-0.47008125-2.46840656-6.73079625-36.54546188-7.19128406-92.99263125-1.10229281-129.22246687 2.25926813-47.63746219 43.33573875-84.1042575 45.0990225-85.64689125 0.06715406-0.05852062 0.13430906-0.11608125 0.20146312-0.17364188 5.89712156-5.00492625 11.87962594-10.47130031 15.68248688-16.53438937 0.45665063-0.72718688 0.77611406-1.29128438 0.99964219-1.72203282-0.28588594-0.73773937-0.69552844-1.68174-1.02650438-2.44538156-2.28421125-5.26778813-5.73595125-13.22751188-3.7721625-23.45993437 1.18479656-6.17725219 5.69853656-17.21456812 22.61091-21.72543 6.80754469-1.81604906 14.08325156-2.18731688 19.39612969-2.45785313l1.05240656-0.0546825c20.99056875-1.10517094 43.38082781-2.04053625 66.03298969-0.30411375 163.80989719 12.55884469 220.23787875 73.76822531 222.55950469 76.36806281 0.13143094 0.14582156 0.25902469 0.29452031 0.38373937 0.44513813 13.11238969 15.70934906 22.82580375 35.28295781 28.871625 58.17687562 1.88895937 7.14331688 3.10253625 13.14021094 3.80861813 18.81764157 5.72156063 33.24817781 4.7670075 67.41061594 3.54575625 90.25272843-0.68689406 12.8207475-2.11632469 26.27850281-4.50030844 42.35240532-0.64852031 4.36504031 0.06427687 5.21694281 0.33289406 5.53736531 0.71087813 0.84998344 1.58100844 1.77383719 2.50102406 2.75141437 3.62154469 3.84315469 8.58042281 9.10614562 11.216715 17.55130032 1.32198375 4.22113781 1.93980469 8.77517062 1.93980469 14.313495 0 0.29164219-0.00767438 0.58328437-0.02110594 0.87492656-0.09305719 1.85826-2.58352875 45.9624375-29.43284437 84.74798062-6.22426031 8.99102438-14.30582062 18.15856875-22.86321844 27.8652675-27.13328344 30.77785219-60.90046969 69.08372156-66.62011125 133.90121532-2.25159375 25.5196575-1.0735125 35.04312094-0.597675 37.57484437 0.63604875 1.21069875 1.13299219 2.49814594 1.47452063 3.8383575 0.03453656 0.13239 5.12964187 13.70047125 63.42068062 29.02895813 33.473625 8.80203187 66.14811187 13.26204844 66.47429063 13.30617843 0.28492688 0.03837375 0.56889469 0.08442281 0.8519025 0.13622719 43.21486031 8.01536531 79.64711906 21.55466625 108.28658156 40.24087688 23.67386906 15.44648719 42.12216094 34.40803125 54.8335425 56.35699031 20.15785312 34.80808031 19.33760906 66.2948925 18.93372281 72.60357469l0 20.93684437c0 9.68079656-7.84747969 17.52827625-17.52827625 17.52827625L759.39130906 938.19008281c-9.68079656 0-17.52827625-7.84747969-17.52827625-17.52827625s7.84747969-17.52827625 17.52827625-17.52827625l148.30201125 0L907.69332031 899.09179156c0-0.64372312 0.00863437-1.03705687 0.0767475-1.658715 0.09785344-1.41408094 1.52536594-26.56151156-15.32752781-54.49777031-10.1441625-16.81643812-24.92773875-31.50887719-43.94108812-43.66959187-24.46917-15.64986937-56.02697344-27.1572675-93.79944375-34.20273094-4.34969063-0.60247125-36.57424313-5.21694281-70.38843657-14.11874719-66.3390225-17.46495844-82.4666475-36.89370562-87.36508687-50.996145-3.75393469-7.28050406-5.85491062-21.74557687-2.7984225-56.393445 6.73175625-76.28364 46.33082813-121.20230437 75.24466406-154.00150687 8.20051969-9.30185344 15.28243875-17.33544656 20.33725125-24.63705563 19.80001594-28.60396688 22.91022656-62.15625844 23.21721844-66.19320094-0.03069937-2.11152844-0.24463406-3.02195156-0.33960938-3.32798343-0.23312156-0.74829281-1.77863437-2.38782094-3.27234093-3.97362563-1.172325-1.24427625-2.50102406-2.65548-3.87769125-4.30076437-7.45318688-8.91043875-10.10866594-19.76164125-8.118975-33.17334844 2.21993531-14.96297531 3.54479625-27.38079562 4.17125156-39.07910438 1.82947969-34.22095781 0.85669875-59.76364031-3.15338156-82.81968844-0.05372344-0.30603281-0.09881344-0.61398375-0.13622719-0.92193468-0.4979025-4.16069906-1.43518688-8.76941438-2.95095938-14.5024875-4.67491031-17.70383719-11.93143031-32.59773844-21.56905593-44.2806975-1.60691063-1.63856906-14.42382094-14.18014594-43.01531532-27.8211375-51.45279469-24.5468775-113.2416225-33.60889313-156.01614093-36.88890938-20.5636575-1.57621125-41.66455125-0.68689406-61.51349344 0.35879719l-1.10517094 0.05660156c-1.65583688 0.08442281-4.43986969 0.22640625-7.08575625 0.49310531 2.29476375 5.4759675 5.11237406 13.71773906 2.15278031 23.56546219-1.11092719 3.69349594-2.81569125 7.30544719-5.3656425 11.37117-6.31156031 10.06261781-14.92843875 18.03385313-22.55143031 24.51138094-1.49754469 1.35172312-32.08448625 29.39638969-33.14169 61.62957469-0.02686219 0.81544688-0.110325 1.62801656-0.25039031 2.43195093-5.59876406 32.16027562-5.22078 85.10677781 0.84230906 118.02589875 0.13143094 0.71759344 0.27053625 1.43039063 0.4086825 2.14030875 1.85634094 9.56759344 4.96367438 25.57913719-10.199805 39.56453532l-0.40772344 0.37702406c-1.95611344 1.80453656-4.6346175 4.27582125-5.0778375 5.12676375l0 0c0.00287812 0-0.12471563 0.40004906-0.154455 1.48507312 0.30795094 4.02734906 3.42583687 37.55661656 23.21625938 66.14523375 5.0548125 7.30160906 12.13673156 15.33424312 20.33725125 24.63705563 28.91383687 32.7982425 68.51194875 77.71786687 75.243705 153.99958781 3.05648813 34.64882813 0.95551219 49.11390094-2.7984225 56.394405-4.89939844 14.10243844-21.02606438 33.53118562-87.36508688 50.996145-34.092405 8.97567469-66.56830687 13.59110531-70.49012812 14.13217875-37.3446 6.52357687-68.62131469 17.70287719-92.96289094 33.22995-18.92412937 12.07149563-33.72305531 26.81190188-43.98713719 43.81157531-17.13973969 28.38907219-16.06239 54.24450187-15.98947875 55.62788438 0.04700812 0.509415 0.05084531 0.81352875 0.05084532 1.34404875l0 4.03982062 400.32314062 0 33.08221031-0.2542275c0.04413 0 0.08921906 0 0.13430907 0l21.02222718 0c0.13239 0 0.26286188 0.00095906 0.39525188 0.00479719 2.71495969 0.06043875 66.98082656 1.82180437 109.64022375 29.81562469 8.09403188 5.31095906 10.34946281 16.17655219 5.03850375 24.270585C702.74267656 962.09803344 697.14583156 964.88206625 691.43770156 964.88206625zM624.00022344 678.7589375c0.42595125 0.34536563 0.83463375 0.70991906 1.22413031 1.09173937C624.85500406 679.48804344 624.44728062 679.12157188 624.00022344 678.7589375zM420.164345 678.7589375c-0.44226 0.35879719-0.84518719 0.72047156-1.21165875 1.08022781C419.33834469 679.46214031 419.74319 679.101425 420.164345 678.7589375z" fill="#ffffff" p-id="3764"></path>
</svg>