<?xml version="1.0" standalone="no"?><!DOCTYPE svg PUBLIC "-//W3C//DTD SVG 1.1//EN" "http://www.w3.org/Graphics/SVG/1.1/DTD/svg11.dtd">
<svg xmlns="http://www.w3.org/2000/svg" xmlns:xlink="http://www.w3.org/1999/xlink" t="1563952976907" viewBox="0 0 1177 1024" version="1.1">
    <path d="M746.9421875 220.80781223C686.1078125 159.95937527 601.2265625 90.125 483.87500027 90.125 266.74999973 90.125 90.125 266.74999973 90.125 483.87500027c0 213.44062527 186.74999973 393.75000027 407.81249973 393.74999946a14.06250027 14.06250027 0 1 0 0-28.12499973C292.11875 849.5 118.24999973 682.0578125 118.24999973 483.87500027 118.24999973 282.27499973 282.26093777 118.24999973 483.87500027 118.24999973c100.89843723 0 177.01875 58.14843777 233.15624973 112.57031277L487.9953125 459.87031277A14.02031277 14.02031277 0 0 0 483.87500027 469.8125v337.5a14.06250027 14.06250027 0 1 0 28.12499973 0V475.634375l234.9421875-234.9421875a14.0484375 14.0484375 0 0 0 0-19.88437527" fill="#ffffff" p-id="4072"></path>
    <path d="M919.81249973 540.12499973a14.06250027 14.06250027 0 0 0-14.06249946 14.06250027c0 195.7078125-144.09843723 344.43281277-337.5 351.30937527V568.25000027h295.3125a14.06250027 14.06250027 0 1 0 0-28.12500054H554.1875a14.06250027 14.06250027 0 0 0-14.06250027 14.06250027v365.62499973a14.06250027 14.06250027 0 0 0 14.06250027 14.06250027c216.4640625 0 379.6875-163.2234375 379.6875-379.6875a14.06250027 14.06250027 0 0 0-14.06250027-14.06250027M541.19375 503.309375A14.06250027 14.06250027 0 0 0 554.1875 512h365.62499973a14.06250027 14.06250027 0 0 0 14.06250027-14.06250027c0-115.83281223-34.509375-209.06718723-102.5578125-277.1296875a14.0484375 14.0484375 0 1 0-19.88437527 19.88437527c59.84999973 59.84999973 91.47656277 141.6234375 94.13437527 243.18281277H588.16250027l201.17812473-200.99531277a14.06250027 14.06250027 0 0 0-19.88437527-19.89843723l-225.21093696 224.99999946a14.06250027 14.06250027 0 0 0-3.05156277 15.32812527" fill="#ffffff" p-id="4073"></path>
</svg>