<?xml version="1.0" standalone="no"?><!DOCTYPE svg PUBLIC "-//W3C//DTD SVG 1.1//EN" "http://www.w3.org/Graphics/SVG/1.1/DTD/svg11.dtd">
<svg xmlns="http://www.w3.org/2000/svg" xmlns:xlink="http://www.w3.org/1999/xlink" t="1563952976907" viewBox="0 0 1024 1024" version="1.1">
    <path d="M631.0109375 484.89453125c9.47109375-9.466875 9.47109375-24.81046875 0-34.273125-9.466875-9.466875-24.80203125-9.466875-34.273125 0L511.1984375 536.16078125 425.65484375 450.625625c-9.47109375-9.45421875-24.8146875-9.46265625-34.27734375 0.00421875-9.46265625 9.466875-9.46265625 24.81890625 0.00421875 34.273125l92.64375 92.63109375c0.94078125 0.945 1.9828125 1.7128125 3.03328125 2.4721875L390.4240625 580.00625c-13.38609375 0-24.23671875 10.850625-24.23671875 24.23671875s10.850625 24.2325 24.23671875 24.2325l96.54609375 0 0 64.23046875L390.4240625 692.7059375c-13.38609375 0-24.23671875 10.850625-24.23671875 24.2325 0 13.3903125 10.850625 24.2409375 24.23671875 24.2409375l96.54609375 0 0 69.66c0 13.381875 10.850625 24.2325 24.23671875 24.2325s24.23671875-10.850625 24.23671875-24.2325l0-69.66 96.5503125 0c13.3903125 0 24.23671875-10.850625 24.23671875-24.2409375 0-13.381875-10.84640625-24.2325-24.23671875-24.2325l-96.5503125 0 0-64.23046875 96.5503125 0c13.3903125 0 24.23671875-10.84640625 24.23671875-24.2325s-10.84640625-24.23671875-24.23671875-24.23671875l-96.643125 0c1.04625-0.759375 2.07984375-1.5271875 3.02484375-2.4721875L631.0109375 484.89453125z" p-id="3013" fill="#ffffff"></path>
    <path d="M802.75203125 443.49171875c-28.8140625-36.74953125-65.79984375-67.58859375-95.529375-92.36953125-11.33578125-9.45421875-24.4096875-20.35546875-33.48-29.0925 6.69515625-4.2440625 13.04015625-9.6103125 17.78625-16.22109375 7.65703125-10.64390625 10.33171875-23.338125 7.53890625-35.74546875-5.2565625-23.32125-17.8453125-37.88015625-32.26921875-45.98859375 0.51890625-0.93234375 1.07578125-1.92375 1.670625-2.95734375 9.3740625-16.5965625 23.53640625-41.68125 37.2853125-88.08328125 3.78-12.74484375-3.4171875-26.1478125-16.115625-30.054375-17.97609375-5.5265625-36.399375-9.42890625-54.793125-11.6184375-13.21734375-1.65375-25.34625 7.9059375-26.9325 21.19921875-1.57359375 13.2890625 7.91859375 25.35046875 21.2034375 26.92828125 7.45875 0.8859375 14.92171875 2.11359375 22.35515625 3.661875-9.40359375 26.1309375-18.3178125 41.9090625-25.2196875 54.13078125-7.59796875 13.46203125-14.16234375 25.08890625-15.49125 40.68140625-0.5653125 6.7584375 2.13046875 13.449375 6.7246875 18.444375 4.59 4.995 11.47921875 7.83421875 18.25875 7.83421875 5.315625 0 12.17953125 2.5565625 15.50390625 14.34796875-3.23578125 3.07546875-11.728125 7.1465625-15.778125 7.93546875-7.22671875 0.74671875-13.68984375 4.84734375-17.68921875 10.89703125-3.99515625 6.06234375-5.02453125 13.7446875-2.87296875 20.68875 0.7340625 2.37515625 1.501875 4.8515625 2.1178125 6.51796875 5.94 19.355625 27.1096875 37.006875 59.15953125 63.7284375 27.96609375 23.30859375 62.77078125 52.32515625 88.425 85.0415625 57.6196875 73.47796875 114.4378125 247.43390625 68.73609375 342.19125-20.4778125 42.474375-59.079375 63.315-118.02796875 63.7284375-130.6715625 0.92390625-229.8290625 4.36640625-242.746875 4.82625-7.47984375-0.5315625-38.96015625-2.244375-158.506875-4.82625-51.10171875-1.09265625-86.96953125-13.5253125-109.66640625-37.98984375-24.08484375-25.97484375-34.27734375-66.909375-31.14703125-125.14921875 3.59015625-66.71109375 36.06609375-145.70296875 36.4753125-146.69015625 17.04375-42.10734375 38.56359375-81.52734375 59.045625-108.13078125 16.16203125-21.0009375 48.06-45.7903125 76.21171875-67.651875 42.41953125-32.96109375 66.68578125-52.633125 72.0140625-73.6509375 0.45984375-1.7803125 0.7425-3.32015625 1.0884375-5.36625 1.11796875-6.58546875-0.52734375-13.34390625-4.55203125-18.66796875-4.02890625-5.32828125-10.07859375-8.77078125-16.7146875-9.4921875l-2.3709375-0.22359375c-11.72390625-1.02515625-25.66265625-3.6871875-25.55296875-10.51734375 0.05484375-3.03328125 0.1603125-9.36140625 24.91171875-11.289375l3.0121875-0.2615625c6.93140625-0.759375 13.20046875-4.45921875 17.20828125-10.1671875 4.00359375-5.70375 5.36203125-12.85875 3.7209375-19.6340625-3.79265625-15.6515625-12.43265625-27.92390625-23.37609375-43.45734375-8.5809375-12.18375-18.6553125-26.5021875-29.93625-46.99265625 4.02890625 1.82671875 7.8721875 5.40421875 13.20890625 10.36125 13.09078125 12.1584375 32.93578125 30.560625 67.71515625 23.22421875 1.9996875-0.4134375 3.93609375-1.0884375 5.7628125-1.98703125 8.55140625-4.23140625 16.0734375-8.28984375 23.135625-12.099375 21.29625-11.50453125 35.36578125-19.1025 62.37421875-23.101875 13.24265625-1.9575 22.3846875-14.2846875 20.4271875-27.52734375-1.9575-13.23-14.23828125-22.35515625-27.52734375-20.42296875-35.43328125 5.248125-55.30359375 15.97640625-78.3084375 28.400625-5.74171875 3.09234375-11.795625 6.37453125-18.54140625 9.77484375-7.5515625 0.94921875-11.34-1.83515625-22.0471875-11.77875-15.6853125-14.5715625-41.93859375-38.98125-92.83359375-13.52109375-11.75765625 5.8809375-16.68515625 20.06015625-11.10375 31.96125 18.76921875 40.04859375 35.68640625 64.074375 48.03890625 81.6159375 1.02515625 1.45546875 2.0165625 2.8603125 2.96578125 4.21875-32.44640625 12.87984375-37.0575 39.1753125-37.2684375 51.86109375-0.20671875 12.099375 3.290625 36.60609375 32.26078125 50.36765625-11.4075 9.85078125-26.06765625 21.2371875-37.44984375 30.08390625-30.44671875 23.6503125-64.951875 50.46046875-84.8896875 76.37625-23.0428125 29.94046875-46.93359375 73.490625-65.475 119.289375-1.468125 3.526875-35.99015625 87.34921875-40.03171875 162.49359375-3.87703125 72.0309375 10.5215625 124.60078125 44.01421875 160.7090625 31.64484375 34.11703125 80.15203125 52.1184375 144.163125 53.5021875 134.780625 2.9025 155.91234375 4.674375 156.5578125 4.73765625 0.826875 0.084375 1.65796875 0.1265625 2.48484375 0.1265625 0.30375 0 0.6075 0 0.90703125-0.01265625 1.02515625-0.050625 103.94578125-3.86859375 242.6709375-4.8515625 97.3771875-0.6834375 141.49265625-49.93734375 161.36296875-91.13765625C932.2296875 722.1359375 870.97765625 530.48234375 802.75203125 443.49171875z" p-id="3014" fill="#ffffff"></path>
</svg>
