<?xml version="1.0" standalone="no"?><!DOCTYPE svg PUBLIC "-//W3C//DTD SVG 1.1//EN" "http://www.w3.org/Graphics/SVG/1.1/DTD/svg11.dtd">
<svg xmlns="http://www.w3.org/2000/svg" xmlns:xlink="http://www.w3.org/1999/xlink" t="1563952976907" viewBox="0 0 1177 1024" version="1.1">
    <path d="M1043.5328 704v-136.0128H1177.6v-112h-134.0672V320h-110.3872v136.0128h-134.0672v112h134.0672V704z" p-id="1808" fill="#ffffff"></path>
    <path d="M1009.3824 1024s0-70.4-5.7856-107.2128c-4.736-29.056-44.4416-67.456-213.1968-130.3808-166.1184-61.8752-155.8528-31.744-155.8528-145.6128 0-73.856 37.0432-30.9248 60.6976-171.1872 9.216-55.2192 16.5632-18.4064 36.5568-106.9312 10.496-46.4128-7.1168-49.8688-4.992-72.0128 2.0992-22.1184 4.1984-41.856 8.1408-87.1936C739.6864 147.456 688.4352 0 504.6784 0c-183.7312 0-235.008 147.456-229.9904 203.7248 3.9424 45.056 6.0416 65.0752 8.1408 87.2192 2.0992 22.1184-15.5136 25.6-4.992 71.9872 19.968 88.2688 27.3408 51.456 36.5312 106.9312 23.6544 140.288 60.7232 97.3312 60.7232 171.2128 0 114.1248 10.24 83.968-155.8784 145.5872C50.4576 849.3312 10.5216 888.0128 6.0416 917.0688 0 953.6 0 1024 0 1024h1009.3824z" p-id="1809" fill="#ffffff"></path>
</svg>
