<?xml version="1.0" standalone="no"?><!DOCTYPE svg PUBLIC "-//W3C//DTD SVG 1.1//EN" "http://www.w3.org/Graphics/SVG/1.1/DTD/svg11.dtd">
<svg xmlns="http://www.w3.org/2000/svg" xmlns:xlink="http://www.w3.org/1999/xlink" t="1563952976907" viewBox="0 0 1024 1024" version="1.1">
    <path d="M341.726 784.654c-145.716 0-263.905-65.08-264.622-145.409 0 30.699-0.102 57.611-0.102 57.611 0 80.737 118.496 146.125 264.621 146.125 146.228 0 264.621-65.388 264.621-146.125V638.53c0.103 80.737-118.291 146.125-264.518 146.125m0 101.612c-145.716 0-263.905-64.979-264.622-145.409 0 30.699-0.102 57.611-0.102 57.611 0 80.737 118.496 146.125 264.621 146.125 146.228 0 264.621-65.388 264.621-146.125v-58.225c0.103 80.635-118.291 146.023-264.518 146.023m0 0zM680.432 716.913c-8.493 0-16.884-0.307-25.172-0.717-0.307 2.558-0.307 5.117-0.717 7.675 1.74 5.116 2.661 10.642 2.661 16.372v34.28c7.675 0.41 15.452 0.614 23.33 0.614 146.228 0 264.622-65.387 264.622-146.125v-58.224c0 80.737-118.496 146.125-264.724 146.125m0 0z" p-id="2520" fill="#ffffff"></path>
    <path d="M680.432 615.3c-8.493 0-16.884-0.306-25.172-0.716-0.307 2.558-0.307 5.117-0.717 7.675 1.74 5.116 2.661 10.642 2.661 16.372v34.28c7.675 0.41 15.452 0.614 23.33 0.614 146.228 0 264.622-65.387 264.622-146.125v-58.224c0 80.737-118.496 146.124-264.724 146.124m0 0zM680.432 411.974c-145.715 0-263.904-65.08-264.62-145.409 0 30.699-0.103 57.611-0.103 57.611 0 34.485 21.796 66.104 57.918 91.073 36.633 10.028 69.174 24.047 96.29 41.545 33.667 8.493 71.017 13.405 110.413 13.405 146.227 0 264.621-65.388 264.621-146.125v-58.225c0.205 80.84-118.291 146.125-264.519 146.125m0 0z" p-id="2521" fill="#ffffff"></path>
    <path d="M680.432 513.688c-17.805 0-35.098-1.023-51.982-2.865 13.405 18.522 22.512 38.783 26.298 60.374 8.493 0.512 16.987 0.716 25.582 0.716 146.227 0 264.621-65.388 264.621-146.125v-58.224c0.205 80.737-118.291 146.124-264.519 146.124m0 0zM680.432 76.44c-146.124 0-264.62 65.387-264.62 146.124S534.307 368.69 680.431 368.69c146.228 0 264.622-65.388 264.622-146.125 0.102-80.737-118.394-146.125-264.622-146.125m0 0zM341.726 449.12c-146.125 0-264.622 65.387-264.622 146.124S195.601 741.37 341.726 741.37c146.227 0 264.62-65.388 264.62-146.125 0-80.84-118.393-146.125-264.62-146.125m0 0z" p-id="2522" fill="#ffffff"></path>
</svg>