<?xml version="1.0" standalone="no"?><!DOCTYPE svg PUBLIC "-//W3C//DTD SVG 1.1//EN" "http://www.w3.org/Graphics/SVG/1.1/DTD/svg11.dtd">
<svg xmlns="http://www.w3.org/2000/svg" xmlns:xlink="http://www.w3.org/1999/xlink" t="1563952976907" viewBox="0 0 1177 1024" version="1.1">
    <path d="M772.05375234 166.78979478l-111.51670447 168.57304753L545.2782633 166.78979478 772.05375234 166.78979478zM642.82085998 373.91591743L395.42941772 373.91591743l123.68191306 470.43865986L642.82085998 373.91591743zM403.68684571 346.29910164l230.86277761 0-115.43829254-168.84921625L403.68684571 346.29910164zM377.71322982 335.36284231L492.95820451 166.78979478 266.19652537 166.78979478 377.71322982 335.36284231zM492.90297102 853.21957618L366.8874375 373.91591743 95.38651568 373.91591743 492.90297102 853.21957618zM95.77315018 346.29910164l256.06312209 0-111.54432183-168.61447236L95.77315018 346.29910164zM797.76500819 177.98841291L686.41400422 346.29910164l255.6212529 0L797.76500819 177.98841291zM671.36283899 373.91591743l-126.02934219 479.26223272L942.42189281 373.91591743 671.36283899 373.91591743z" p-id="3455" fill="#ffffff"></path>
</svg>
