<?xml version="1.0" standalone="no"?><!DOCTYPE svg PUBLIC "-//W3C//DTD SVG 1.1//EN" "http://www.w3.org/Graphics/SVG/1.1/DTD/svg11.dtd">
<svg xmlns="http://www.w3.org/2000/svg" xmlns:xlink="http://www.w3.org/1999/xlink" t="1563952976907" viewBox="0 0 1177 1024" version="1.1">
    <path d="M687.2 432.8c10.56 0 19.2-8.64 19.2-19.2s-8.64-19.2-19.2-19.2H617.6l67.68-101.28c5.76-9.12 3.36-21.12-5.28-26.88-9.12-5.76-21.12-3.36-26.88 5.28l-82.08 122.88h-53.28c-1.92-0.48-3.84-0.96-5.76-0.96s-3.84 0.48-5.76 0.96H452.48l-81.6-122.88c-5.76-9.12-17.76-11.52-26.88-5.28-9.12 5.76-11.52 17.76-5.28 26.88L406.4 394.4H336.8c-10.56 0-19.2 8.64-19.2 19.2s8.64 19.2 19.2 19.2H492.8v115.2H336.8c-10.56 0-19.2 8.64-19.2 19.2s8.64 19.2 19.2 19.2H492.8v120.96c0 10.56 8.64 19.2 19.2 19.2s19.2-8.64 19.2-19.2v-120.96h155.52c10.56 0 19.2-8.64 19.2-19.2s-8.64-19.2-19.2-19.2H531.2v-115.2h156z" fill="#ffffff" p-id="3609"></path>
    <path d="M924.8 399.2c10.56 0 19.2-8.64 19.2-19.2V244.64C944 185.6 896 137.6 836.96 137.6H187.04C128 137.6 80 185.6 80 244.64v135.36c0 10.56 8.64 19.2 19.2 19.2 52.8 0 96 43.2 96 96s-43.2 96-96 96c-10.56 0-19.2 8.64-19.2 19.2v135.36C80 804.8 128 852.8 187.04 852.8h649.92c59.04 0 107.04-48 107.04-107.04v-135.36c0-10.56-8.64-19.2-19.2-19.2-52.8 0-96-43.2-96-96s42.72-96 96-96z m-134.88 96c0 67.68 50.4 123.84 115.2 133.44v117.6c0 37.92-30.72 68.16-68.16 68.16H187.04c-37.92 0-68.16-30.72-68.16-68.16v-117.6c65.28-9.6 115.2-65.76 115.2-133.44 0-67.68-50.4-123.84-115.2-133.44V244.64c0-37.92 30.72-68.16 68.16-68.16h649.92c37.44 0 68.16 30.72 68.16 68.16v117.6c-64.8 9.12-115.2 65.28-115.2 132.96z" fill="#ffffff" p-id="3610"></path>
</svg>