<?xml version="1.0" standalone="no"?><!DOCTYPE svg PUBLIC "-//W3C//DTD SVG 1.1//EN" "http://www.w3.org/Graphics/SVG/1.1/DTD/svg11.dtd">
<svg xmlns="http://www.w3.org/2000/svg" xmlns:xlink="http://www.w3.org/1999/xlink" t="1563952976907" viewBox="0 0 1024 1024" version="1.1">
	<path d="M888.443 852.689h-239.555c0 75.395-61.493 136.889-136.889 136.889s-136.889-61.493-136.889-136.889h-239.555c-37.429 0-68.444-31.014-68.444-68.444 79.138-66.839 171.111-186.618 171.111-444.886 0-102.666 85.020-214.958 226.721-235.811-2.675-6.417-4.277-13.367-4.277-20.853 0-28.34 22.992-51.332 51.332-51.332s51.332 22.992 51.332 51.332c0 7.486-1.603 14.437-4.277 20.853 141.702 20.853 226.721 133.146 226.721 235.811 0 258.27 91.973 378.047 171.111 444.886 0.001 37.429-31.012 68.444-68.442 68.444zM859.568 784.245c-95.715-108.013-142.236-254.527-142.236-444.886 0-68.979-65.236-171.111-205.332-171.111-140.096 0-205.332 102.132-205.332 171.111 0 190.361-46.522 336.874-142.236 444.886h695.137zM511.999 929.69c-42.243 0-76.999-34.757-76.999-77.001 0-4.812-3.743-8.556-8.555-8.556-4.813 0-8.556 3.744-8.556 8.556 0 51.87 42.242 94.11 94.11 94.11 4.813 0 8.557-3.744 8.557-8.555-0.001-4.813-3.745-8.556-8.558-8.556z" p-id="2557" fill="#fff"></path>
</svg>
