<?xml version="1.0" standalone="no"?><!DOCTYPE svg PUBLIC "-//W3C//DTD SVG 1.1//EN" "http://www.w3.org/Graphics/SVG/1.1/DTD/svg11.dtd">
<svg xmlns="http://www.w3.org/2000/svg" xmlns:xlink="http://www.w3.org/1999/xlink" t="1558322852384" viewBox="0 0 1024 1024" version="1.1">
    <path d="M509.866667 32C245.333333 32 32 247.466667 32 512s213.333333 480 477.866667 480S987.733333 776.533333 987.733333 512 774.4 32 509.866667 32z m0 896C281.6 928 96 742.4 96 512S281.6 96 509.866667 96 923.733333 281.6 923.733333 512s-185.6 416-413.866666 416z" fill="#fff" />
    <path d="M746.327273 534.035416 418.181818 723.708144C401.890909 733.017235 380.945455 721.380871 380.945455 701.599053L380.945455 322.253598C380.945455 303.635416 401.890909 290.835416 418.181818 300.144507L746.327273 489.817235C763.781818 500.289962 763.781818 523.562689 746.327273 534.035416L746.327273 534.035416Z" fill="#fff" />
</svg>