<?xml version="1.0" standalone="no"?><!DOCTYPE svg PUBLIC "-//W3C//DTD SVG 1.1//EN" "http://www.w3.org/Graphics/SVG/1.1/DTD/svg11.dtd">
<svg xmlns="http://www.w3.org/2000/svg" xmlns:xlink="http://www.w3.org/1999/xlink" t="1563952976907" viewBox="0 0 1024 1024" version="1.1">
    <path id="svg_1" fill="#d60" p-id="1970" d="m423.83541,97.57465c-48.69231,0 -88.07579,39.47228 -88.07579,88.16459l0,154.22286l-66.14707,0c-12.11579,0 -22.02038,9.90173 -22.02038,22.02038l0,132.20249c0,12.11579 9.90172,22.01751 22.02038,22.01751l66.14707,0l0,66.05828c0,48.69231 39.38348,88.16459 88.07579,88.16459l264.40497,0c48.69231,0 88.16459,-39.47228 88.16459,-88.16459l0,-308.44859c0,-23.35512 -21.81129,-45.83379 -60.14933,-83.51018l-16.28901,-16.29187l-16.29187,-16.28614c-37.67066,-38.33804 -60.12927,-60.14933 -83.51017,-60.14933l-176.32631,0l-0.00287,0zm0.00287,44.0379l160.66743,0c15.86224,3.96699 15.66174,23.57281 15.66174,42.9638l0,67.22117c0,12.11579 9.90172,22.01751 22.02038,22.01751l66.05541,0c22.03471,0 44.12669,-0.01432 44.12669,22.02038l0,286.42535c0,24.23445 -19.88937,44.12669 -44.12669,44.12669l-264.40496,0c-24.23731,0 -44.0379,-19.89224 -44.0379,-44.12669l0,-66.05828l220.36707,0c12.11866,0 22.02038,-9.89886 22.02038,-22.01751l0,-132.20249c0,-12.11865 -9.90172,-22.02038 -22.02038,-22.02038l-220.36993,0l0,-154.22286c0,-24.23445 19.80058,-44.12669 44.03789,-44.12669l0.00287,0z"/>
  	<text stroke="null" xml:space="preserve" text-anchor="start" font-family="Helvetica" font-size="140" y="480" x="290" stroke-opacity="null" stroke-width="0" fill="#ffffff">SVG</text>
</svg>